<?xml version="1.0" encoding="utf-8"?>
<!-- Generator: Adobe Illustrator 27.2.0, SVG Export Plug-In . SVG Version: 6.00 Build 0)  -->
<svg version="1.1" id="Layer_1" xmlns="http://www.w3.org/2000/svg" xmlns:xlink="http://www.w3.org/1999/xlink" x="0px" y="0px"
	 viewBox="0 0 512 512" style="enable-background:new 0 0 512 512;" xml:space="preserve">
<style type="text/css">
	.st0{fill:none;stroke:#000000;stroke-width:4;stroke-miterlimit:10;}
</style>
<image style="display:none;overflow:visible;" width="516" height="512" xlink:href="hotovo.png"  transform="matrix(0.9884 0 0 0.9884 1 2.9767)">
</image>
<path class="st0" d="M401,312.3v25.6c0,0,4,52.1-62,52.1c-8.4,0-15.6-1.4-21.9-3.8C294.7,408.4,253,387,253,387
	c-48,1-83.5-8.2-107-29c-18-16-36-50-42-85s-8-55,13-69s38-4,38-4c7-5,70-10,70-10v-10l45-0.9v-9.4l-9-5.4v-21.2c6-5.9,18-9,18-9
	v-22.5c7-8.8,21-11.5,21-11.5V73.3c0,0-6-1-6-8.9s6-10.1,6-10.1V25.1c0,0,3-3.9,16-3.9v-7.9c0,0,4-3,15-3s16,3.9,16,3.9v6.5
	c0,0,14-1.6,18,7.3v25.6c0,0,8,2,8,9.8s-5,9.8-5,9.8v26.6c0,0,19,3.9,23,10.8v23.7c0,0,12,0.9,18,6.8v20.7l-5,6.9v109.2
	c0,0,8,1,10,3.9v24.1L401,312.3z"/>
</svg>
